<svg width="512" height="512" viewBox="0 0 512 512" fill="none" xmlns="http://www.w3.org/2000/svg">
  <defs>
    <linearGradient id="bgApp" x1="0%" y1="0%" x2="0%" y2="100%">
      <stop offset="0%" stop-color="#1C1C1E" />
      <stop offset="100%" stop-color="#000000" />
    </linearGradient>

    <linearGradient id="orangeMate" x1="0%" y1="0%" x2="100%" y2="100%">
      <stop offset="20%" stop-color="#FFB347" />
      <stop offset="100%" stop-color="#FF8C00" />
    </linearGradient>

    <linearGradient id="greenMate" x1="100%" y1="0%" x2="0%" y2="100%">
      <stop offset="0%" stop-color="#4ADE80" />
      <stop offset="100%" stop-color="#22C55E" />
    </linearGradient>

    <filter id="subtleDrop" x="-20%" y="-20%" width="140%" height="140%">
      <feGaussianBlur in="SourceAlpha" stdDeviation="8"/>
      <feOffset dx="0" dy="6" result="offsetblur"/>
      <feComponentTransfer>
        <feFuncA type="linear" slope="0.3"/>
      </feComponentTransfer>
      <feMerge>
        <feMergeNode/>
        <feMergeNode in="SourceGraphic"/>
      </feMerge>
    </filter>
  </defs>

  <rect width="512" height="512" rx="115" fill="url(#bgApp)"/>

  <g filter="url(#subtleDrop)" transform="translate(106, 106) scale(1)">
    <path d="M 0 32 C 0 14.326 14.326 0 32 0 L 268 0 C 285.674 0 300 14.326 300 32 L 300 90 C 300 107.674 285.674 122 268 122 L 122 122 L 122 268 C 122 285.674 107.674 300 90 300 L 32 300 C 14.326 300 0 285.674 0 268 L 0 32 Z"
          fill="url(#orangeMate)"/>

    <rect x="142" y="142" width="158" height="70" rx="24" fill="url(#greenMate)"/>
    <rect x="142" y="230" width="158" height="70" rx="24" fill="url(#greenMate)"/>
  </g>
</svg>
